<svg width="291" height="369" viewBox="0 0 291 369" fill="none" xmlns="http://www.w3.org/2000/svg">
<g clip-path="url(#clip0_123_16)">
<mask id="mask0_123_16" style="mask-type:alpha" maskUnits="userSpaceOnUse" x="0" y="0" width="291" height="291">
<path d="M226.207 0H64.793C29.0088 0 0 29.0088 0 64.793V226.207C0 261.991 29.0088 291 64.793 291H226.207C261.991 291 291 261.991 291 226.207V64.793C291 29.0088 261.991 0 226.207 0Z" fill="#D9D9D9"/>
</mask>
<g mask="url(#mask0_123_16)">
<rect x="291" width="291" height="29.1" transform="rotate(90 291 0)" fill="#6D272A"/>
<rect x="261.9" width="291" height="29.1" transform="rotate(90 261.9 0)" fill="#9F2D2E"/>
<rect x="232.8" width="291" height="29.1" transform="rotate(90 232.8 0)" fill="#CD6140"/>
<rect x="203.7" width="291" height="29.1" transform="rotate(90 203.7 0)" fill="#F5C463"/>
<rect x="174.6" width="291" height="29.1" transform="rotate(90 174.6 0)" fill="#FCEBAE"/>
<rect x="145.5" width="291" height="29.1" transform="rotate(90 145.5 0)" fill="#AED8DA"/>
<rect x="116.4" width="291" height="29.1" transform="rotate(90 116.4 0)" fill="#71C3D5"/>
<rect x="87.3" width="291" height="29.1" transform="rotate(90 87.3 0)" fill="#538EB4"/>
<rect x="58.2" width="291" height="29.1" transform="rotate(90 58.2 0)" fill="#3372A1"/>
<rect x="29.1" width="291" height="29.1" transform="rotate(90 29.1 0)" fill="#21527A"/>
</g>
</g>
<path d="M22.32 346.32C21.9733 346.32 21.8 346.493 21.8 346.84V358.08C21.8 358.693 21.44 359 20.72 359H15.68C15.3333 359 15.0933 358.933 14.96 358.8C14.8533 358.667 14.8 358.453 14.8 358.16V330.08C14.8 329.573 15.0133 329.32 15.44 329.32H21.16C21.5867 329.32 21.8 329.56 21.8 330.04V340.28C21.8 340.733 22 340.96 22.4 340.96H31.64C32.0667 340.96 32.28 340.747 32.28 340.32V330.04C32.28 329.56 32.48 329.32 32.88 329.32H38.6C39.0533 329.32 39.28 329.573 39.28 330.08V358.16C39.28 358.453 39.2133 358.667 39.08 358.8C38.9733 358.933 38.7467 359 38.4 359H33.32C32.6267 359 32.28 358.693 32.28 358.08V346.84C32.28 346.493 32.0933 346.32 31.72 346.32H22.32ZM50.3991 358.04C50.3991 358.387 50.3191 358.64 50.1591 358.8C49.9991 358.933 49.7191 359 49.3191 359H45.1191C44.7724 359 44.5324 358.933 44.3991 358.8C44.2924 358.667 44.2391 358.453 44.2391 358.16V338.56C44.2391 338.053 44.4524 337.8 44.8791 337.8H49.7991C50.1991 337.8 50.3991 338.027 50.3991 338.48V358.04ZM50.4791 334.24C50.4791 334.907 50.1191 335.24 49.3991 335.24H45.0791C44.7324 335.24 44.4924 335.16 44.3591 335C44.2524 334.84 44.1991 334.613 44.1991 334.32V330.12C44.1991 329.587 44.4257 329.32 44.8791 329.32H49.8391C50.2657 329.32 50.4791 329.573 50.4791 330.08V334.24ZM67.905 343.32C67.4517 342.733 66.8383 342.227 66.065 341.8C65.2917 341.373 64.345 341.16 63.225 341.16C62.2383 341.16 61.3983 341.36 60.705 341.76C60.0383 342.133 59.705 342.653 59.705 343.32C59.705 343.667 59.8383 344 60.105 344.32C60.3717 344.613 60.985 344.88 61.945 345.12L66.545 346.24C68.7583 346.747 70.3317 347.573 71.265 348.72C72.1983 349.867 72.665 351.147 72.665 352.56C72.665 354 72.2517 355.227 71.425 356.24C70.625 357.253 69.505 358.04 68.065 358.6C66.625 359.133 64.9717 359.4 63.105 359.4C60.7317 359.4 58.7183 358.987 57.065 358.16C55.4117 357.307 54.2517 356.253 53.585 355C53.4783 354.813 53.425 354.64 53.425 354.48C53.425 354.293 53.505 354.16 53.665 354.08L56.385 352.68C56.6517 352.547 56.8517 352.493 56.985 352.52C57.145 352.52 57.2783 352.587 57.385 352.72C57.7317 353.2 58.145 353.653 58.625 354.08C59.105 354.507 59.705 354.853 60.425 355.12C61.145 355.36 62.0517 355.467 63.145 355.44C63.8917 355.44 64.5583 355.36 65.145 355.2C65.7583 355.013 66.2383 354.76 66.585 354.44C66.9317 354.093 67.105 353.693 67.105 353.24C67.105 352.787 66.9183 352.4 66.545 352.08C66.1717 351.733 65.4783 351.44 64.465 351.2L60.345 350.32C58.345 349.867 56.825 349.16 55.785 348.2C54.7717 347.213 54.265 345.933 54.265 344.36C54.265 343 54.6117 341.8 55.305 340.76C56.025 339.72 57.065 338.907 58.425 338.32C59.785 337.707 61.4117 337.4 63.305 337.4C65.3317 337.4 67.0783 337.773 68.545 338.52C70.0383 339.267 71.105 340.16 71.745 341.2C71.8517 341.36 71.9317 341.533 71.985 341.72C72.0383 341.88 71.945 342.027 71.705 342.16L68.825 343.56C68.6383 343.64 68.465 343.667 68.305 343.64C68.1717 343.587 68.0383 343.48 67.905 343.32ZM84.2919 342.04C83.9985 342.04 83.8519 342.2 83.8519 342.52V352.16C83.8519 353.067 84.0652 353.72 84.4919 354.12C84.9185 354.493 85.5985 354.68 86.5319 354.68H88.6919C88.8785 354.68 89.0252 354.747 89.1319 354.88C89.2385 355.013 89.2919 355.173 89.2919 355.36L89.2519 357.8C89.2519 358.307 88.9585 358.627 88.3719 358.76C87.8919 358.813 87.3719 358.867 86.8119 358.92C86.2785 358.947 85.7319 358.973 85.1719 359C84.6385 359 84.1185 359 83.6119 359C81.7985 359 80.3585 358.573 79.2919 357.72C78.2252 356.84 77.6919 355.547 77.6919 353.84V342.64C77.6919 342.24 77.5185 342.04 77.1719 342.04H74.7319C74.2252 342.04 73.9719 341.813 73.9719 341.36V338.4C73.9719 338 74.2119 337.8 74.6919 337.8H77.4519C77.6919 337.8 77.8252 337.653 77.8519 337.36L78.4119 331.28C78.4385 330.827 78.6385 330.6 79.0119 330.6H83.3719C83.7985 330.6 84.0119 330.853 84.0119 331.36V337.36C84.0119 337.627 84.1452 337.76 84.4119 337.76H88.6119C89.0919 337.76 89.3319 337.973 89.3319 338.4V341.36C89.3319 341.813 89.0652 342.04 88.5319 342.04H84.2919ZM101.733 359.4C99.6268 359.4 97.7601 358.933 96.1334 358C94.5334 357.067 93.2801 355.787 92.3734 354.16C91.4668 352.507 91.0134 350.627 91.0134 348.52C91.0134 346.307 91.4801 344.373 92.4134 342.72C93.3468 341.04 94.6268 339.733 96.2534 338.8C97.8801 337.867 99.7201 337.4 101.773 337.4C103.933 337.4 105.813 337.88 107.413 338.84C109.013 339.773 110.253 341.08 111.133 342.76C112.04 344.413 112.493 346.32 112.493 348.48C112.493 350.613 112.04 352.507 111.133 354.16C110.227 355.787 108.96 357.067 107.333 358C105.733 358.933 103.867 359.4 101.733 359.4ZM101.773 355.32C102.76 355.32 103.587 355.067 104.253 354.56C104.92 354.027 105.413 353.24 105.733 352.2C106.08 351.16 106.253 349.893 106.253 348.4C106.253 346.827 106.08 345.533 105.733 344.52C105.413 343.48 104.92 342.693 104.253 342.16C103.587 341.627 102.76 341.36 101.773 341.36C100.813 341.36 99.9868 341.627 99.2934 342.16C98.6268 342.693 98.1201 343.48 97.7734 344.52C97.4268 345.533 97.2534 346.827 97.2534 348.4C97.2534 349.92 97.4268 351.2 97.7734 352.24C98.1201 353.253 98.6268 354.027 99.2934 354.56C99.9868 355.067 100.813 355.32 101.773 355.32ZM151.79 329.32C152.19 329.32 152.47 329.44 152.63 329.68C152.79 329.92 152.817 330.213 152.71 330.56L144.55 358.16C144.363 358.72 143.963 359 143.35 359H139.03C138.363 359 137.95 358.72 137.79 358.16L132.75 340.68C132.697 340.44 132.617 340.32 132.51 340.32C132.43 340.293 132.35 340.44 132.27 340.76L127.19 358.16C127.03 358.72 126.63 359 125.99 359H121.55C120.91 359 120.497 358.72 120.31 358.16L112.15 330.56C112.07 330.213 112.11 329.92 112.27 329.68C112.43 329.44 112.71 329.32 113.11 329.32H118.11C118.457 329.32 118.697 329.387 118.83 329.52C118.99 329.627 119.097 329.787 119.15 330L124.31 348.2C124.39 348.493 124.47 348.64 124.55 348.64C124.63 348.64 124.71 348.533 124.79 348.32L129.95 330C130.003 329.787 130.097 329.627 130.23 329.52C130.39 329.387 130.643 329.32 130.99 329.32H135.27C135.617 329.32 135.857 329.387 135.99 329.52C136.15 329.627 136.27 329.787 136.35 330L141.59 348.48C141.643 348.667 141.723 348.773 141.83 348.8C141.937 348.8 142.003 348.707 142.03 348.52L147.11 330C147.163 329.787 147.27 329.627 147.43 329.52C147.59 329.387 147.843 329.32 148.19 329.32H151.79ZM158.741 350.2C158.741 351.187 158.967 352.067 159.421 352.84C159.901 353.587 160.527 354.173 161.301 354.6C162.101 355 162.994 355.2 163.981 355.2C164.941 355.2 165.821 355 166.621 354.6C167.447 354.173 168.274 353.48 169.101 352.52C169.207 352.413 169.301 352.36 169.381 352.36C169.461 352.333 169.607 352.373 169.821 352.48L172.701 353.68C173.074 353.84 173.114 354.107 172.821 354.48C171.967 355.707 171.074 356.68 170.141 357.4C169.207 358.12 168.167 358.64 167.021 358.96C165.901 359.253 164.634 359.4 163.221 359.4C161.141 359.4 159.287 358.947 157.661 358.04C156.034 357.133 154.741 355.88 153.781 354.28C152.847 352.653 152.381 350.8 152.381 348.72C152.381 346.427 152.861 344.44 153.821 342.76C154.807 341.053 156.114 339.733 157.741 338.8C159.367 337.867 161.154 337.4 163.101 337.4C165.154 337.4 166.954 337.853 168.501 338.76C170.047 339.64 171.261 340.907 172.141 342.56C173.047 344.213 173.501 346.227 173.501 348.6C173.501 348.893 173.474 349.12 173.421 349.28C173.367 349.44 173.167 349.533 172.821 349.56H159.221C159.061 349.56 158.941 349.613 158.861 349.72C158.781 349.827 158.741 349.987 158.741 350.2ZM166.781 346.2C167.074 346.2 167.261 346.173 167.341 346.12C167.421 346.04 167.461 345.88 167.461 345.64C167.461 344.973 167.301 344.293 166.981 343.6C166.687 342.907 166.234 342.333 165.621 341.88C165.034 341.4 164.274 341.16 163.341 341.16C162.461 341.16 161.674 341.373 160.981 341.8C160.287 342.227 159.754 342.827 159.381 343.6C159.007 344.347 158.821 345.2 158.821 346.16L166.781 346.2ZM188.178 356.96C187.351 357.707 186.418 358.307 185.378 358.76C184.365 359.187 183.191 359.4 181.858 359.4C179.831 359.4 178.231 358.853 177.058 357.76C175.911 356.667 175.338 355.267 175.338 353.56C175.338 352.067 175.805 350.76 176.738 349.64C177.671 348.52 179.005 347.653 180.738 347.04C182.471 346.4 184.538 346.053 186.938 346L188.338 345.88C188.498 345.88 188.645 345.84 188.778 345.76C188.911 345.68 188.978 345.533 188.978 345.32V344.48C188.978 343.467 188.685 342.68 188.098 342.12C187.511 341.533 186.671 341.24 185.578 341.24C184.778 341.24 184.005 341.427 183.258 341.8C182.538 342.147 181.925 342.76 181.418 343.64C181.338 343.827 181.245 343.947 181.138 344C181.031 344.053 180.831 344.053 180.538 344L176.538 343.08C176.378 343.027 176.258 342.947 176.178 342.84C176.125 342.707 176.178 342.44 176.338 342.04C177.005 340.467 178.151 339.307 179.778 338.56C181.431 337.787 183.458 337.4 185.858 337.4C188.071 337.4 189.831 337.68 191.138 338.24C192.445 338.8 193.391 339.587 193.978 340.6C194.565 341.587 194.858 342.747 194.858 344.08V358.12C194.858 358.44 194.805 358.667 194.698 358.8C194.591 358.933 194.391 359 194.098 359H189.978C189.685 359 189.471 358.893 189.338 358.68C189.231 358.467 189.165 358.2 189.138 357.88L189.058 357C189.005 356.52 188.711 356.507 188.178 356.96ZM188.978 349.56C188.978 349.107 188.778 348.88 188.378 348.88L187.258 348.96C186.565 348.987 185.871 349.093 185.178 349.28C184.485 349.44 183.858 349.68 183.298 350C182.738 350.293 182.271 350.68 181.898 351.16C181.551 351.613 181.378 352.147 181.378 352.76C181.378 353.56 181.658 354.2 182.218 354.68C182.778 355.133 183.551 355.36 184.538 355.36C185.205 355.36 185.791 355.253 186.298 355.04C186.831 354.827 187.285 354.573 187.658 354.28C188.058 353.933 188.378 353.587 188.618 353.24C188.858 352.893 188.978 352.533 188.978 352.16V349.56ZM207.573 342.04C207.28 342.04 207.133 342.2 207.133 342.52V352.16C207.133 353.067 207.346 353.72 207.773 354.12C208.2 354.493 208.88 354.68 209.813 354.68H211.973C212.16 354.68 212.306 354.747 212.413 354.88C212.52 355.013 212.573 355.173 212.573 355.36L212.533 357.8C212.533 358.307 212.24 358.627 211.653 358.76C211.173 358.813 210.653 358.867 210.093 358.92C209.56 358.947 209.013 358.973 208.453 359C207.92 359 207.4 359 206.893 359C205.08 359 203.64 358.573 202.573 357.72C201.506 356.84 200.973 355.547 200.973 353.84V342.64C200.973 342.24 200.8 342.04 200.453 342.04H198.013C197.506 342.04 197.253 341.813 197.253 341.36V338.4C197.253 338 197.493 337.8 197.973 337.8H200.733C200.973 337.8 201.106 337.653 201.133 337.36L201.693 331.28C201.72 330.827 201.92 330.6 202.293 330.6H206.653C207.08 330.6 207.293 330.853 207.293 331.36V337.36C207.293 337.627 207.426 337.76 207.693 337.76H211.893C212.373 337.76 212.613 337.973 212.613 338.4V341.36C212.613 341.813 212.346 342.04 211.813 342.04H207.573ZM216.799 359C216.239 359 215.959 358.733 215.959 358.2V330.08C215.959 329.573 216.172 329.32 216.599 329.32H221.399C221.799 329.32 221.999 329.547 221.999 330V340.24C221.999 340.4 222.039 340.507 222.119 340.56C222.199 340.587 222.319 340.533 222.479 340.4C223.305 339.653 224.079 339.067 224.799 338.64C225.545 338.213 226.279 337.907 226.999 337.72C227.745 337.507 228.492 337.4 229.239 337.4C231.265 337.4 232.825 337.96 233.919 339.08C235.012 340.2 235.559 341.773 235.559 343.8V358.04C235.559 358.68 235.239 359 234.599 359H230.159C229.892 359 229.692 358.947 229.559 358.84C229.452 358.707 229.399 358.493 229.399 358.2V344.68C229.399 343.773 229.159 343.08 228.679 342.6C228.199 342.093 227.479 341.84 226.519 341.84C225.959 341.84 225.439 341.933 224.959 342.12C224.479 342.307 224.012 342.587 223.559 342.96C223.105 343.307 222.625 343.76 222.119 344.32V358.08C222.119 358.693 221.772 359 221.079 359H216.799ZM245.186 350.2C245.186 351.187 245.413 352.067 245.866 352.84C246.346 353.587 246.973 354.173 247.746 354.6C248.546 355 249.439 355.2 250.426 355.2C251.386 355.2 252.266 355 253.066 354.6C253.893 354.173 254.719 353.48 255.546 352.52C255.653 352.413 255.746 352.36 255.826 352.36C255.906 352.333 256.053 352.373 256.266 352.48L259.146 353.68C259.519 353.84 259.559 354.107 259.266 354.48C258.413 355.707 257.519 356.68 256.586 357.4C255.653 358.12 254.613 358.64 253.466 358.96C252.346 359.253 251.079 359.4 249.666 359.4C247.586 359.4 245.733 358.947 244.106 358.04C242.479 357.133 241.186 355.88 240.226 354.28C239.293 352.653 238.826 350.8 238.826 348.72C238.826 346.427 239.306 344.44 240.266 342.76C241.253 341.053 242.559 339.733 244.186 338.8C245.813 337.867 247.599 337.4 249.546 337.4C251.599 337.4 253.399 337.853 254.946 338.76C256.493 339.64 257.706 340.907 258.586 342.56C259.493 344.213 259.946 346.227 259.946 348.6C259.946 348.893 259.919 349.12 259.866 349.28C259.813 349.44 259.613 349.533 259.266 349.56H245.666C245.506 349.56 245.386 349.613 245.306 349.72C245.226 349.827 245.186 349.987 245.186 350.2ZM253.226 346.2C253.519 346.2 253.706 346.173 253.786 346.12C253.866 346.04 253.906 345.88 253.906 345.64C253.906 344.973 253.746 344.293 253.426 343.6C253.133 342.907 252.679 342.333 252.066 341.88C251.479 341.4 250.719 341.16 249.786 341.16C248.906 341.16 248.119 341.373 247.426 341.8C246.733 342.227 246.199 342.827 245.826 343.6C245.453 344.347 245.266 345.2 245.266 346.16L253.226 346.2ZM264.063 359C263.77 359 263.557 358.933 263.423 358.8C263.29 358.667 263.223 358.467 263.223 358.2V338.56C263.223 338.053 263.437 337.8 263.863 337.8H268.543C268.97 337.8 269.183 338.027 269.183 338.48V340.84C269.183 341 269.237 341.107 269.343 341.16C269.477 341.187 269.61 341.12 269.743 340.96C270.277 340.24 270.877 339.613 271.543 339.08C272.237 338.547 272.943 338.133 273.663 337.84C274.383 337.547 275.063 337.4 275.703 337.4C276.663 337.4 277.143 337.627 277.143 338.08V342.72C277.143 343.147 276.943 343.32 276.543 343.24C276.063 343.107 275.57 343.027 275.063 343C274.557 342.947 274.117 342.92 273.743 342.92C273.263 342.92 272.757 343.013 272.223 343.2C271.717 343.387 271.25 343.653 270.823 344C270.397 344.347 270.05 344.72 269.783 345.12C269.517 345.52 269.383 345.947 269.383 346.4V358.08C269.383 358.693 269.037 359 268.343 359H264.063Z" fill="black"/>
<defs>
<clipPath id="clip0_123_16">
<rect width="291" height="291" fill="white"/>
</clipPath>
</defs>
</svg>
